<svg width="79" height="77" xmlns="http://www.w3.org/2000/svg"><path d="M59.678 77a6.835 6.835 0 01-3.69-1.088L39.5 65.365l-15.274 9.77a7.363 7.363 0 01-8.365-.265 7.676 7.676 0 01-2.701-3.627 7.753 7.753 0 01-.203-4.534l4.432-17.601-14.85-12.479a7.101 7.101 0 01-2.267-3.505 7.16 7.16 0 01.085-4.186 6.993 6.993 0 012.333-3.387 6.887 6.887 0 013.818-1.47l19.323-1.266 7.224-18.367a6.972 6.972 0 012.541-3.23A6.871 6.871 0 0139.5 0c1.393 0 2.754.425 3.904 1.218a6.974 6.974 0 012.541 3.23l7.224 18.367 19.323 1.266c1.39.09 2.72.603 3.818 1.47a6.993 6.993 0 012.333 3.387 7.16 7.16 0 01.085 4.186 7.101 7.101 0 01-2.267 3.505L61.61 49.108l4.792 19.032a7.151 7.151 0 01-.187 4.181 7.08 7.08 0 01-2.493 3.346A6.834 6.834 0 0159.678 77zM39.5 56.883a6.842 6.842 0 013.688 1.075l14.566 9.317-4.232-16.808a7.228 7.228 0 01.126-3.955 7.165 7.165 0 012.187-3.284L69.05 32.123l-17.198-1.127a6.945 6.945 0 01-3.633-1.344 7.046 7.046 0 01-2.368-3.09L39.5 10.415l-6.351 16.148a7.044 7.044 0 01-2.368 3.09 6.944 6.944 0 01-3.632 1.343L9.95 32.123l13.216 11.105a7.166 7.166 0 012.186 3.284c.409 1.28.453 2.65.126 3.955l-4.231 16.808 14.565-9.317a6.84 6.84 0 013.688-1.075zm-.684 8.044v.001z"/></svg>