<svg width="85" height="90" xmlns="http://www.w3.org/2000/svg"><path d="M35.79 0l32.648 10.26a4.475 4.475 0 012.272 1.63c.565.773.87 1.708.869 2.667V22.5h8.947a4.46 4.46 0 013.164 1.318A4.513 4.513 0 0185 27v36a4.513 4.513 0 01-1.31 3.182 4.46 4.46 0 01-3.164 1.318l-14.405.004a26.857 26.857 0 01-6.263 5.986L35.789 90 11.721 73.494a26.947 26.947 0 01-8.611-9.693A27.127 27.127 0 010 51.183V14.557c0-.958.305-1.892.87-2.664a4.475 4.475 0 012.27-1.629L35.79 0zm0 9.423L8.946 17.865v33.318c0 2.755.628 5.473 1.836 7.946a17.978 17.978 0 005.134 6.315l.846.611L35.789 79.11 52.71 67.5H31.316a4.46 4.46 0 01-3.164-1.318A4.513 4.513 0 0126.842 63V27c0-1.194.471-2.338 1.31-3.182a4.46 4.46 0 013.164-1.318h31.316v-4.635L35.789 9.423zm0 35.577v13.5h40.263V45H35.789zm0-9h40.263v-4.5H35.789V36z"/></svg>