<svg width="97" height="88" xmlns="http://www.w3.org/2000/svg"><path d="M49.763 0a3.625 3.625 0 00-2.82 1.347l-.282.21a30.494 30.494 0 00-16.27-.43 30.571 30.571 0 00-14.188 8.005 30.24 30.24 0 00-7.532 12.393 30.325 30.325 0 00-.906 14.487l-.073.073-4.657 4.64a10.315 10.315 0 000 14.61 10.377 10.377 0 004.017 2.486c1.511.509 3.119.661 4.699.446a10.39 10.39 0 003.381 5.25 10.33 10.33 0 005.772 2.35 10.406 10.406 0 003.133 6.58 10.336 10.336 0 006.671 2.894 10.277 10.277 0 003.023 6.785c3.695 3.688 9.489 4.005 13.548.961l1.88 1.873A10.437 10.437 0 0056.52 88c2.757 0 5.402-1.092 7.36-3.04a10.368 10.368 0 003.013-6.43 10.328 10.328 0 006.426-2.987 10.397 10.397 0 003.005-6.437 10.326 10.326 0 005.788-2.458 10.386 10.386 0 003.301-5.367c1.556.187 3.134.019 4.616-.493a10.376 10.376 0 006.183-5.81 10.316 10.316 0 00-2.243-11.259l-4.05-4.044.836-3.249a29.128 29.128 0 00-2.552-20.99 29.322 29.322 0 00-10.77-11.277A29.183 29.183 0 0062.426.02h-7.811A20.593 20.593 0 0053.612 0h-3.849zM63.98 24.123l16.838 16.791.014.02.068.063 7.9 7.879a3.027 3.027 0 01.658 3.309 3.025 3.025 0 01-.659.984 3.057 3.057 0 01-4.306 0l-7.9-7.879a3.668 3.668 0 00-5.171 0l-.078.083a3.63 3.63 0 00-1.071 2.578 3.641 3.641 0 001.07 2.579l6.157 6.14a3.027 3.027 0 01.659 3.31 3.057 3.057 0 01-4.64 1.277 3.665 3.665 0 00-4.798.34 3.635 3.635 0 00-.301 4.79 3.032 3.032 0 01-.268 3.996 3.057 3.057 0 01-4.034.244 3.666 3.666 0 00-4.837.278 3.635 3.635 0 00-.31 4.825 3.081 3.081 0 01-.263 4.068 3.105 3.105 0 01-4.375 0L52.524 78l.51-.512a10.285 10.285 0 003.032-7.303 10.315 10.315 0 00-3.032-7.303 10.337 10.337 0 00-6.805-3.014 10.403 10.403 0 00-2.924-6.675 10.334 10.334 0 00-6.574-3.102 10.28 10.28 0 00-3-6.458 10.376 10.376 0 00-4.016-2.487 10.347 10.347 0 00-4.7-.445 10.407 10.407 0 00-3.833-5.602 10.343 10.343 0 00-6.461-2.033 23.03 23.03 0 011.19-10.153 22.962 22.962 0 015.464-8.628 23.164 23.164 0 017.999-5.202 23.098 23.098 0 019.408-1.53l-7.277 5.527a11.277 11.277 0 00-2.924 3.307 11.315 11.315 0 00-1.159 8.594 11.332 11.332 0 009.42 8.319 11.31 11.31 0 008.361-2.2l9.182-6.98h9.596v.004zm-28.077-5.205l15.259-11.6h2.45c.303-.003.606.006.908.024h7.904a21.912 21.912 0 0111.267 3.102 22.016 22.016 0 018.09 8.46 21.78 21.78 0 012.157 14.61L68.33 17.924a3.644 3.644 0 00-2.62-1.118H53.165c-.795 0-1.568.26-2.202.741L40.804 25.27a4.038 4.038 0 01-5.648-.766 3.976 3.976 0 01-.782-2.95 3.983 3.983 0 011.535-2.636h-.005zM19.601 57.725a3.024 3.024 0 01-.89-2.146 3.035 3.035 0 01.89-2.147l4.652-4.644a3.057 3.057 0 014.306 0 3.03 3.03 0 01.04 4.254l-.04.039-4.651 4.64-.044.043a3.057 3.057 0 01-4.263-.039zM17.214 41.29a3.02 3.02 0 01-.048 4.244l-4.652 4.644a3.057 3.057 0 01-4.307 0 3.025 3.025 0 01-.89-2.146 3.033 3.033 0 01.89-2.147l4.657-4.639a3.057 3.057 0 014.306 0l.044.044zM43.21 76.97a3.057 3.057 0 01-4.307 0 3.024 3.024 0 01-.89-2.147 3.033 3.033 0 01.89-2.146l4.652-4.64a3.057 3.057 0 014.307 0 3.025 3.025 0 01.89 2.147 3.035 3.035 0 01-.89 2.147L43.21 76.97zm-9.824-9.796a3.052 3.052 0 01-4.306 0 3.03 3.03 0 01-.044-4.254l.044-.039 4.651-4.639.04-.044a3.057 3.057 0 014.267.044 3.027 3.027 0 01.66 3.31 3.025 3.025 0 01-.66.983l-4.652 4.64z"/></svg>