<svg width="139" height="31" viewBox="0 0 139 31" fill="none" xmlns="http://www.w3.org/2000/svg">
<path fill-rule="evenodd" clip-rule="evenodd" d="M139 0H0V18.1551H139V0ZM69.4043 16.1718C70.1506 15.9776 70.7624 15.713 71.2398 15.3782C71.7239 15.0367 72.0803 14.6382 72.3089 14.1828C72.5375 13.7208 72.6518 13.2319 72.6518 12.7162C72.6518 12.1939 72.5677 11.7486 72.3996 11.3802C72.2316 11.0052 71.9693 10.6336 71.613 10.2652C71.2634 9.89692 70.6481 9.50517 69.7673 9.08997L67.1149 7.83433C66.4022 7.4928 65.9113 7.19145 65.6424 6.93027C65.3398 6.62222 65.1885 6.23381 65.1885 5.76504C65.1885 5.28288 65.4272 4.89447 65.9046 4.59981C66.1668 4.43909 66.5266 4.3085 66.9838 4.20805C67.4477 4.1009 68.1873 4.04733 69.2026 4.04733C70.2245 4.04733 71.149 4.14109 71.9761 4.32859V2.40998C71.0011 2.31623 69.9253 2.26935 68.7487 2.26935C66.9266 2.26935 65.5214 2.61758 64.533 3.31404C63.632 3.95023 63.1815 4.78397 63.1815 5.81527C63.1815 6.81978 63.5782 7.70374 64.3716 8.46717C64.7414 8.8221 65.3701 9.20716 66.2576 9.62236L68.8395 10.7976C69.4849 11.0923 69.9791 11.4171 70.322 11.772C70.5372 11.9997 70.6448 12.3211 70.6448 12.7363C70.6448 13.2721 70.3657 13.7074 69.8077 14.0422C69.5051 14.223 69.1051 14.3703 68.6075 14.4842C68.11 14.5913 67.3636 14.6449 66.3685 14.6449C65.3735 14.6449 64.3851 14.5344 63.4034 14.3134V16.2622C64.4994 16.3894 65.5852 16.453 66.661 16.453C67.7435 16.453 68.6579 16.3593 69.4043 16.1718ZM2.26946 2.3698H4.28655V16.3526H2.26946V2.3698ZM13.5995 2.3698H15.0518L22.3839 12.6861L22.2729 11.2396V2.3698H24.2699V16.3526H22.8276L16.7058 7.78411L15.4854 6.03626L15.5964 7.78411V16.3526H13.5995V2.3698ZM33.6836 2.3698H31.5858L37.1127 16.3526H39.0491L44.5759 2.3698H42.4781L38.091 13.8614L33.6836 2.3698ZM51.902 2.3698H53.9191V16.3526H51.902V2.3698ZM81.5209 2.3698H83.538V16.3526H81.5209V2.3698ZM96.5624 2.3698H93.0224V16.3526H96.9557C98.5627 16.3526 99.8469 16.0211 100.808 15.3581C101.279 15.03 101.645 14.6215 101.908 14.1326C102.177 13.6437 102.311 13.0645 102.311 12.3948C102.311 11.7251 102.13 11.1157 101.766 10.5666C101.289 9.84335 100.546 9.33775 99.5376 9.04979V9.00961C100.082 8.68816 100.519 8.29975 100.849 7.84438C101.023 7.60329 101.161 7.33877 101.262 7.05081C101.37 6.75616 101.424 6.36105 101.424 5.86549C101.424 5.36994 101.299 4.87103 101.05 4.36877C100.378 3.03612 98.882 2.3698 96.5624 2.3698ZM99.1342 7.19145C98.7576 8.04193 98.0281 8.46717 96.9456 8.46717H95.0395V3.89665H96.7237C97.618 3.89665 98.287 4.10425 98.7307 4.51945C98.9392 4.71366 99.0905 4.94804 99.1846 5.22261C99.2787 5.49048 99.3258 5.81192 99.3258 6.18694C99.3258 6.55526 99.2619 6.89009 99.1342 7.19145ZM97.2683 9.99403C99.2317 9.99403 100.213 10.8077 100.213 12.435C100.213 12.8368 100.126 13.1884 99.9511 13.4897C99.4334 14.3804 98.4349 14.8257 96.9557 14.8257H95.0395V9.99403H97.2683ZM111.12 2.3698H113.137V14.5846H119.148V16.3526H111.12V2.3698ZM136.731 2.3698H127.664V16.3526H136.731V14.5846H129.681V9.92371H135.016V8.23614H129.681V4.11765H136.731V2.3698Z" fill="#55C1FF"/>
<path d="M41.9425 30.7546C41.4385 30.7546 40.9625 30.6786 40.5145 30.5266C40.0745 30.3746 39.7305 30.1746 39.4825 29.9266L39.6745 29.6146C39.9305 29.8386 40.2585 30.0266 40.6585 30.1786C41.0665 30.3306 41.4985 30.4066 41.9545 30.4066C42.6265 30.4066 43.1225 30.2946 43.4425 30.0706C43.7625 29.8386 43.9225 29.5186 43.9225 29.1106C43.9225 28.8226 43.8345 28.5946 43.6585 28.4266C43.4905 28.2586 43.2785 28.1346 43.0225 28.0546C42.7665 27.9746 42.4225 27.8946 41.9905 27.8146C41.4865 27.7186 41.0825 27.6226 40.7785 27.5266C40.4825 27.4226 40.2305 27.2586 40.0225 27.0346C39.8145 26.8106 39.7105 26.4986 39.7105 26.0986C39.7105 25.6266 39.9025 25.2346 40.2865 24.9226C40.6785 24.6026 41.2465 24.4426 41.9905 24.4426C42.3745 24.4426 42.7585 24.5026 43.1425 24.6226C43.5265 24.7346 43.8385 24.8866 44.0785 25.0786L43.8745 25.3906C43.6265 25.1986 43.3345 25.0546 42.9985 24.9586C42.6705 24.8546 42.3305 24.8026 41.9785 24.8026C41.3625 24.8026 40.8985 24.9226 40.5865 25.1626C40.2745 25.3946 40.1185 25.7026 40.1185 26.0866C40.1185 26.3906 40.2065 26.6306 40.3825 26.8066C40.5585 26.9826 40.7745 27.1146 41.0305 27.2026C41.2945 27.2826 41.6505 27.3666 42.0985 27.4546C42.5785 27.5426 42.9665 27.6386 43.2625 27.7426C43.5585 27.8386 43.8065 27.9946 44.0065 28.2106C44.2145 28.4266 44.3185 28.7266 44.3185 29.1106C44.3185 29.6146 44.1145 30.0146 43.7065 30.3106C43.2985 30.6066 42.7105 30.7546 41.9425 30.7546Z" fill="white"/>
<path d="M56.9873 24.4906V30.7186H56.6033V29.2066C56.4113 29.6946 56.1033 30.0746 55.6793 30.3466C55.2553 30.6186 54.7513 30.7546 54.1673 30.7546C53.3593 30.7546 52.7273 30.5306 52.2713 30.0826C51.8153 29.6346 51.5873 28.9906 51.5873 28.1506V24.4906L51.9833 24.4906V28.1266C51.9833 28.8626 52.1713 29.4266 52.5473 29.8186C52.9313 30.2026 53.4753 30.3946 54.1793 30.3946C54.9233 30.3946 55.5113 30.1666 55.9433 29.7106C56.3753 29.2466 56.5913 28.6266 56.5913 27.8506V24.4906H56.9873Z" fill="white"/>
<path d="M65.2315 24.4906H65.6275V30.7186H65.2315V24.4906ZM65.4235 22.8586C65.3195 22.8586 65.2274 22.8226 65.1474 22.7506C65.0674 22.6706 65.0275 22.5786 65.0275 22.4746C65.0275 22.3626 65.0635 22.2706 65.1355 22.1986C65.2155 22.1186 65.3115 22.0786 65.4235 22.0786C65.5275 22.0786 65.6194 22.1186 65.6994 22.1986C65.7794 22.2706 65.8195 22.3586 65.8195 22.4626C65.8195 22.5666 65.7794 22.6586 65.6994 22.7386C65.6194 22.8186 65.5275 22.8586 65.4235 22.8586Z" fill="white"/>
<path d="M76.81 30.3226C76.666 30.4586 76.482 30.5666 76.258 30.6466C76.034 30.7186 75.802 30.7546 75.562 30.7546C75.058 30.7546 74.666 30.6146 74.386 30.3346C74.114 30.0466 73.978 29.6546 73.978 29.1586V24.8386H72.802V24.4906H73.978V23.1226H74.374V24.4906H76.426V24.8386H74.374V29.0986C74.374 29.5226 74.478 29.8466 74.686 30.0706C74.894 30.2946 75.198 30.4066 75.598 30.4066C75.998 30.4066 76.334 30.2826 76.606 30.0346L76.81 30.3226Z" fill="white"/>
<path d="M89.0509 27.6586H83.5909C83.5989 28.1866 83.7229 28.6586 83.9629 29.0746C84.2029 29.4906 84.5309 29.8146 84.9469 30.0466C85.3709 30.2786 85.8429 30.3946 86.3629 30.3946C86.7869 30.3946 87.1789 30.3186 87.5389 30.1666C87.8989 30.0066 88.1949 29.7746 88.4269 29.4706L88.6789 29.7346C88.3989 30.0626 88.0589 30.3146 87.6589 30.4906C87.2589 30.6666 86.8269 30.7546 86.3629 30.7546C85.7549 30.7546 85.2109 30.6226 84.7309 30.3586C84.2589 30.0866 83.8869 29.7106 83.6149 29.2306C83.3429 28.7506 83.2069 28.2066 83.2069 27.5986C83.2069 26.9906 83.3309 26.4466 83.5789 25.9666C83.8349 25.4866 84.1869 25.1146 84.6349 24.8506C85.0829 24.5786 85.5829 24.4426 86.1349 24.4426C86.6789 24.4426 87.1709 24.5746 87.6109 24.8386C88.0589 25.1026 88.4109 25.4706 88.6669 25.9426C88.9229 26.4146 89.0509 26.9506 89.0509 27.5506V27.6586ZM86.1349 24.8026C85.6709 24.8026 85.2509 24.9106 84.8749 25.1266C84.4989 25.3426 84.1989 25.6466 83.9749 26.0386C83.7509 26.4226 83.6269 26.8546 83.6029 27.3346H88.6789C88.6469 26.8546 88.5149 26.4226 88.2829 26.0386C88.0589 25.6466 87.7589 25.3426 87.3829 25.1266C87.0149 24.9106 86.5989 24.8026 86.1349 24.8026Z" fill="white"/>
<path d="M98.0847 30.7546C97.5807 30.7546 97.1047 30.6786 96.6567 30.5266C96.2167 30.3746 95.8727 30.1746 95.6247 29.9266L95.8167 29.6146C96.0727 29.8386 96.4007 30.0266 96.8007 30.1786C97.2087 30.3306 97.6407 30.4066 98.0967 30.4066C98.7687 30.4066 99.2647 30.2946 99.5847 30.0706C99.9047 29.8386 100.065 29.5186 100.065 29.1106C100.065 28.8226 99.9767 28.5946 99.8007 28.4266C99.6327 28.2586 99.4207 28.1346 99.1647 28.0546C98.9087 27.9746 98.5647 27.8946 98.1327 27.8146C97.6287 27.7186 97.2247 27.6226 96.9207 27.5266C96.6247 27.4226 96.3727 27.2586 96.1647 27.0346C95.9567 26.8106 95.8527 26.4986 95.8527 26.0986C95.8527 25.6266 96.0447 25.2346 96.4287 24.9226C96.8207 24.6026 97.3887 24.4426 98.1327 24.4426C98.5167 24.4426 98.9007 24.5026 99.2847 24.6226C99.6687 24.7346 99.9807 24.8866 100.221 25.0786L100.017 25.3906C99.7687 25.1986 99.4767 25.0546 99.1407 24.9586C98.8127 24.8546 98.4727 24.8026 98.1207 24.8026C97.5047 24.8026 97.0407 24.9226 96.7287 25.1626C96.4167 25.3946 96.2607 25.7026 96.2607 26.0866C96.2607 26.3906 96.3487 26.6306 96.5247 26.8066C96.7007 26.9826 96.9167 27.1146 97.1727 27.2026C97.4367 27.2826 97.7927 27.3666 98.2407 27.4546C98.7207 27.5426 99.1087 27.6386 99.4047 27.7426C99.7007 27.8386 99.9487 27.9946 100.149 28.2106C100.357 28.4266 100.461 28.7266 100.461 29.1106C100.461 29.6146 100.257 30.0146 99.8487 30.3106C99.4407 30.6066 98.8527 30.7546 98.0847 30.7546Z" fill="white"/>
</svg>
