<svg width="79" height="77" viewBox="0 0 79 77" xmlns="http://www.w3.org/2000/svg">
<path d="M59.6784 77C58.3708 76.9987 57.0905 76.6213 55.9876 75.912L39.5 65.3652L24.2259 75.1354C22.9672 75.9467 21.4952 76.3554 20.0026 76.3081C18.51 76.2607 17.0663 75.7595 15.8606 74.87C14.619 73.963 13.6776 72.6987 13.1596 71.2425C12.6416 69.7864 12.571 68.2062 12.9573 66.7089L17.3887 49.108L2.5388 36.6292C1.45113 35.7176 0.661038 34.496 0.271738 33.124C-0.117561 31.7519 -0.0879703 30.2932 0.356645 28.9384C0.779115 27.5979 1.59222 26.4173 2.68974 25.5507C3.78725 24.6841 5.11814 24.1719 6.5085 24.081L25.8306 22.8149L33.0547 4.448C33.5605 3.13759 34.4464 2.01189 35.5965 1.21825C36.7465 0.424607 38.107 0 39.5 0C40.893 0 42.2535 0.424607 43.4036 1.21825C44.5536 2.01189 45.4395 3.13759 45.9454 4.448L53.1694 22.8149L72.4915 24.081C73.8819 24.1719 75.2128 24.6841 76.3103 25.5507C77.4078 26.4173 78.2209 27.5979 78.6434 28.9384C79.088 30.2932 79.1176 31.752 78.7282 33.124C78.3388 34.4961 77.5486 35.7177 76.4609 36.6292L61.6114 49.108L66.4033 68.1397C66.7592 69.5209 66.6938 70.9783 66.2156 72.3213C65.7374 73.6643 64.8688 74.8302 63.7234 75.6665C62.5486 76.5315 61.1325 76.9984 59.6784 77ZM39.5 56.883C40.8055 56.8813 42.0847 57.2541 43.1885 57.958L57.7544 67.2751L53.5221 50.4669C53.1955 49.1629 53.2392 47.7923 53.6482 46.5122C54.0571 45.232 54.8149 44.0941 55.8347 43.2285L69.0496 32.1231L51.8517 30.9962C50.5395 30.9026 49.2801 30.4368 48.2185 29.6524C47.1569 28.8679 46.3363 27.7968 45.851 26.5623L39.5 10.4151L33.1486 26.563C32.6634 27.7973 31.8428 28.8683 30.7814 29.6526C29.7199 30.4369 28.4607 30.9026 27.1486 30.9962L9.95045 32.1231L23.1656 43.2285C24.1853 44.094 24.943 45.232 25.352 46.5121C25.7609 47.7921 25.8045 49.1626 25.4779 50.4666L21.2467 67.2748L35.8119 57.958C36.9156 57.2541 38.1946 56.8813 39.5 56.883ZM38.8156 64.9272L38.8163 64.9282L38.8153 64.9272H38.8156Z"/>
</svg>
