<svg width="85" height="90" viewBox="0 0 85 90" xmlns="http://www.w3.org/2000/svg">
<path d="M35.7895 0L68.4384 10.26C69.349 10.5459 70.1449 11.1172 70.7099 11.8903C71.2749 12.6634 71.5794 13.598 71.5789 14.5575V22.5H80.5263C81.7128 22.5 82.8507 22.9741 83.6897 23.818C84.5287 24.6619 85 25.8065 85 27V63C85 64.1935 84.5287 65.3381 83.6897 66.182C82.8507 67.0259 81.7128 67.5 80.5263 67.5L66.1211 67.5045C64.3897 69.7995 62.2871 71.8245 59.8579 73.4895L35.7895 90L11.7211 73.494C8.10865 71.0165 5.15257 67.689 3.10984 63.8006C1.0671 59.9123 -0.000452839 55.5809 1.44097e-07 51.183V14.5575C0.000539554 13.5987 0.305493 12.6652 0.87041 11.893C1.43533 11.1208 2.23068 10.5502 3.14053 10.2645L35.7895 0ZM35.7895 9.423L8.94737 17.865V51.183C8.94673 53.938 9.5748 56.6564 10.7832 59.1288C11.9916 61.6012 13.7481 63.7616 15.9174 65.4435L16.7629 66.0555L35.7895 79.11L52.7089 67.5H31.3158C30.1293 67.5 28.9914 67.0259 28.1524 66.182C27.3134 65.3381 26.8421 64.1935 26.8421 63V27C26.8421 25.8065 27.3134 24.6619 28.1524 23.818C28.9914 22.9741 30.1293 22.5 31.3158 22.5H62.6316V17.865L35.7895 9.423ZM35.7895 45V58.5H76.0526V45H35.7895ZM35.7895 36H76.0526V31.5H35.7895V36Z"/>
</svg>
