<svg width="139" height="31" fill="none" xmlns="http://www.w3.org/2000/svg"><path fill-rule="evenodd" clip-rule="evenodd" d="M139 0H0v18.155h139V0zM69.404 16.172c.747-.194 1.358-.459 1.836-.794.484-.341.84-.74 1.069-1.195.228-.462.343-.951.343-1.467 0-.522-.084-.967-.252-1.336-.168-.375-.43-.746-.787-1.115-.35-.368-.965-.76-1.846-1.175l-2.652-1.256c-.713-.341-1.204-.643-1.473-.904-.302-.308-.453-.696-.453-1.165 0-.482.238-.87.716-1.165.262-.16.622-.291 1.079-.392.464-.107 1.203-.16 2.219-.16 1.022 0 1.946.093 2.773.28V2.41c-.975-.094-2.05-.14-3.227-.14-1.822 0-3.228.348-4.216 1.044-.901.636-1.352 1.47-1.352 2.501 0 1.005.397 1.889 1.19 2.652.37.355 1 .74 1.887 1.155l2.582 1.176c.645.294 1.14.62 1.482.974.215.228.323.55.323.964 0 .536-.28.971-.837 1.306-.303.181-.703.328-1.2.442-.498.107-1.244.16-2.24.16-.994 0-1.983-.11-2.965-.33v1.948c1.096.127 2.182.191 3.258.191 1.082 0 1.997-.094 2.743-.281zM2.27 2.37h2.018v13.983H2.269V2.37zm11.33 0h1.453l7.332 10.316-.111-1.446V2.37h1.997v13.983h-1.442l-6.122-8.569-1.22-1.748.11 1.748v8.569H13.6V2.37zm20.085 0h-2.098l5.527 13.983h1.936L44.576 2.37h-2.098l-4.387 11.49-4.407-11.49zm18.218 0h2.017v13.983h-2.017V2.37zm29.619 0h2.017v13.983h-2.017V2.37zm15.041 0h-3.54v13.983h3.934c1.607 0 2.89-.332 3.852-.995a3.496 3.496 0 001.1-1.225c.269-.49.403-1.068.403-1.738 0-.67-.181-1.28-.545-1.828-.477-.724-1.22-1.23-2.228-1.517v-.04c.544-.322.981-.71 1.311-1.166.174-.24.312-.505.413-.793.108-.295.162-.69.162-1.186 0-.495-.125-.994-.374-1.496-.672-1.333-2.168-2-4.488-2zm2.572 4.821c-.376.85-1.106 1.276-2.188 1.276H95.04v-4.57h1.684c.894 0 1.563.207 2.007.622.208.195.36.429.454.704.094.267.14.589.14.964 0 .368-.063.703-.19 1.004zm-1.866 2.803c1.964 0 2.945.814 2.945 2.441 0 .402-.087.753-.262 1.055-.518.89-1.516 1.336-2.995 1.336H95.04V9.994h2.228zM111.12 2.37h2.017v12.215h6.011v1.768h-8.028V2.37zm25.611 0h-9.067v13.983h9.067v-1.768h-7.05V9.924h5.335V8.236h-5.335V4.118h7.05V2.37z" fill="#55C1FF"/><path d="M41.943 30.755a4.41 4.41 0 01-1.428-.228c-.44-.152-.785-.352-1.032-.6l.192-.312c.256.224.584.412.983.564.408.152.84.228 1.297.228.672 0 1.168-.112 1.488-.336.32-.232.48-.552.48-.96 0-.288-.089-.516-.265-.684a1.524 1.524 0 00-.636-.372c-.255-.08-.6-.16-1.032-.24a11.043 11.043 0 01-1.212-.288 1.853 1.853 0 01-.755-.492c-.209-.224-.313-.536-.313-.936 0-.472.193-.864.576-1.176.392-.32.96-.48 1.704-.48.384 0 .768.06 1.152.18.384.112.697.264.936.456l-.204.312a2.565 2.565 0 00-.876-.432 3.354 3.354 0 00-1.02-.156c-.616 0-1.08.12-1.392.36-.311.232-.468.54-.468.924 0 .304.088.544.264.72.177.176.393.308.649.396.264.08.62.164 1.068.252.48.088.868.184 1.164.288.296.096.544.252.744.468.208.216.312.516.312.9 0 .504-.205.904-.613 1.2-.408.296-.995.444-1.764.444zm15.044-6.265v6.229h-.384v-1.512c-.192.488-.5.868-.924 1.14-.424.272-.928.408-1.512.408-.808 0-1.44-.224-1.896-.672-.456-.448-.684-1.092-.684-1.932v-3.66h.396v3.636c0 .736.188 1.3.564 1.692.384.384.928.576 1.632.576.744 0 1.332-.228 1.764-.684.432-.464.648-1.084.648-1.86v-3.36h.396zm8.244 0h.397v6.229h-.397V24.49zm.193-1.631a.4.4 0 01-.277-.108.38.38 0 01-.12-.276c0-.112.037-.204.108-.276a.393.393 0 01.564 0c.08.072.12.16.12.264a.38.38 0 01-.12.276.38.38 0 01-.275.12zm11.386 7.464a1.551 1.551 0 01-.552.324 2.26 2.26 0 01-.696.108c-.504 0-.896-.14-1.176-.42-.272-.288-.408-.68-.408-1.176v-4.32h-1.176v-.348h1.176v-1.368h.396v1.368h2.052v.348h-2.052v4.26c0 .424.104.748.312.972.208.224.512.336.912.336s.736-.124 1.008-.372l.204.288zm12.24-2.664h-5.46c.009.528.133 1 .373 1.416.24.416.568.74.984.972a2.9 2.9 0 001.416.348c.424 0 .816-.076 1.176-.228.36-.16.656-.392.888-.696l.252.264c-.28.328-.62.58-1.02.756-.4.176-.832.264-1.296.264-.608 0-1.152-.132-1.632-.396a2.964 2.964 0 01-1.116-1.128 3.252 3.252 0 01-.408-1.632c0-.608.124-1.152.372-1.632.256-.48.608-.852 1.056-1.116a2.834 2.834 0 011.5-.408c.544 0 1.036.132 1.476.396.448.264.8.632 1.056 1.104.256.472.384 1.008.384 1.608v.108zm-2.915-2.856c-.464 0-.884.108-1.26.324-.376.216-.676.52-.9.912a2.81 2.81 0 00-.372 1.296h5.076a2.831 2.831 0 00-.396-1.296 2.419 2.419 0 00-2.148-1.236zm11.95 5.952c-.504 0-.98-.076-1.428-.228-.44-.152-.784-.352-1.032-.6l.192-.312c.256.224.584.412.984.564.408.152.84.228 1.296.228.672 0 1.168-.112 1.488-.336.32-.232.48-.552.48-.96 0-.288-.088-.516-.264-.684a1.524 1.524 0 00-.636-.372c-.256-.08-.6-.16-1.032-.24a11.043 11.043 0 01-1.212-.288 1.853 1.853 0 01-.756-.492c-.208-.224-.312-.536-.312-.936 0-.472.192-.864.576-1.176.392-.32.96-.48 1.704-.48.384 0 .768.06 1.152.18.384.112.696.264.936.456l-.204.312a2.57 2.57 0 00-.876-.432 3.354 3.354 0 00-1.02-.156c-.616 0-1.08.12-1.392.36-.312.232-.468.54-.468.924 0 .304.088.544.264.72.176.176.392.308.648.396.264.08.62.164 1.068.252.48.088.868.184 1.164.288.296.096.544.252.744.468.208.216.312.516.312.9 0 .504-.204.904-.612 1.2-.408.296-.996.444-1.764.444z" fill="#fff"/></svg>