<?xml version="1.0" encoding="UTF-8"?><!DOCTYPE svg PUBLIC "-//W3C//DTD SVG 1.1//EN" "http://www.w3.org/Graphics/SVG/1.1/DTD/svg11.dtd"><svg xmlns="http://www.w3.org/2000/svg" xmlns:xlink="http://www.w3.org/1999/xlink"><symbol id="guarantee-1-icon" viewBox="0 0 79 77">
<path d="M59.6784 77C58.3708 76.9987 57.0905 76.6213 55.9876 75.912L39.5 65.3652L24.2259 75.1354C22.9672 75.9467 21.4952 76.3554 20.0026 76.3081C18.51 76.2607 17.0663 75.7595 15.8606 74.87C14.619 73.963 13.6776 72.6987 13.1596 71.2425C12.6416 69.7864 12.571 68.2062 12.9573 66.7089L17.3887 49.108L2.5388 36.6292C1.45113 35.7176 0.661038 34.496 0.271738 33.124C-0.117561 31.7519 -0.0879703 30.2932 0.356645 28.9384C0.779115 27.5979 1.59222 26.4173 2.68974 25.5507C3.78725 24.6841 5.11814 24.1719 6.5085 24.081L25.8306 22.8149L33.0547 4.448C33.5605 3.13759 34.4464 2.01189 35.5965 1.21825C36.7465 0.424607 38.107 0 39.5 0C40.893 0 42.2535 0.424607 43.4036 1.21825C44.5536 2.01189 45.4395 3.13759 45.9454 4.448L53.1694 22.8149L72.4915 24.081C73.8819 24.1719 75.2128 24.6841 76.3103 25.5507C77.4078 26.4173 78.2209 27.5979 78.6434 28.9384C79.088 30.2932 79.1176 31.752 78.7282 33.124C78.3388 34.4961 77.5486 35.7177 76.4609 36.6292L61.6114 49.108L66.4033 68.1397C66.7592 69.5209 66.6938 70.9783 66.2156 72.3213C65.7374 73.6643 64.8688 74.8302 63.7234 75.6665C62.5486 76.5315 61.1325 76.9984 59.6784 77ZM39.5 56.883C40.8055 56.8813 42.0847 57.2541 43.1885 57.958L57.7544 67.2751L53.5221 50.4669C53.1955 49.1629 53.2392 47.7923 53.6482 46.5122C54.0571 45.232 54.8149 44.0941 55.8347 43.2285L69.0496 32.1231L51.8517 30.9962C50.5395 30.9026 49.2801 30.4368 48.2185 29.6524C47.1569 28.8679 46.3363 27.7968 45.851 26.5623L39.5 10.4151L33.1486 26.563C32.6634 27.7973 31.8428 28.8683 30.7814 29.6526C29.7199 30.4369 28.4607 30.9026 27.1486 30.9962L9.95045 32.1231L23.1656 43.2285C24.1853 44.094 24.943 45.232 25.352 46.5121C25.7609 47.7921 25.8045 49.1626 25.4779 50.4666L21.2467 67.2748L35.8119 57.958C36.9156 57.2541 38.1946 56.8813 39.5 56.883ZM38.8156 64.9272L38.8163 64.9282L38.8153 64.9272H38.8156Z"/>
</symbol><symbol id="guarantee-2-icon" viewBox="0 0 97 88">
<path d="M49.7626 0.000241048C49.2225 0.000440923 48.6893 0.121382 48.2016 0.354279C47.714 0.587175 47.2841 0.926176 46.9433 1.34665L46.6614 1.55642C41.3759 -0.0579697 35.7535 -0.206094 30.3909 1.12776C25.0283 2.46162 20.1256 5.22769 16.2031 9.1324C12.7264 12.5876 10.1411 16.841 8.67074 21.5245C7.20041 26.208 6.8894 31.1805 7.76462 36.0118L7.69171 36.0849L3.03499 40.7242C2.07337 41.6803 1.31006 42.8182 0.789133 44.0721C0.268209 45.3259 0 46.671 0 48.0294C0 49.3879 0.268209 50.733 0.789133 51.9868C1.31006 53.2407 2.07337 54.3786 3.03499 55.3347C4.16599 56.462 5.54045 57.3129 7.05186 57.8213C8.56327 58.3297 10.171 58.4821 11.7505 58.2665C12.3138 60.3234 13.4945 62.1563 15.1321 63.5161C16.7698 64.8759 18.7849 65.6967 20.9036 65.8669C21.1214 68.3684 22.2344 70.706 24.0368 72.4476C25.8392 74.1892 28.209 75.2169 30.708 75.3406C30.8344 77.8139 31.8406 80.2432 33.7314 82.1262C37.4257 85.8142 43.2199 86.1313 47.2787 83.0873L49.1599 84.9605C51.1179 86.9076 53.7628 88 56.5192 88C59.2757 88 61.9206 86.9076 63.8786 84.9605C65.6771 83.1653 66.6833 80.8725 66.8924 78.5309C69.318 78.3247 71.5934 77.2665 73.3183 75.5426C75.0432 73.8187 76.1069 71.5395 76.3225 69.1061C78.4591 68.909 80.4818 68.0501 82.1105 66.6481C83.7391 65.2462 84.893 63.3706 85.4123 61.2813C86.9682 61.4684 88.546 61.2996 90.0276 60.7876C91.5093 60.2757 92.8562 59.4338 93.9675 58.3251C94.9283 57.369 95.691 56.2315 96.2115 54.9781C96.732 53.7246 97 52.3802 97 51.0223C97 49.6644 96.732 48.3199 96.2115 47.0665C95.691 45.8131 94.9283 44.6755 93.9675 43.7195L89.9184 39.6754L90.7544 36.4264C92.5632 29.3562 91.6521 21.8616 88.2025 15.4351C85.6926 10.7697 81.971 6.87322 77.4326 4.15915C72.8942 1.44508 67.7083 0.0146863 62.4252 0.019754H54.6138C54.2802 0.00513147 53.9463 -0.00137457 53.6124 0.000241048H49.7675H49.7626ZM63.9807 24.1234L80.8188 40.9145L80.8334 40.934L80.9014 40.9974L88.8004 48.8758C89.0825 49.157 89.3065 49.4914 89.4593 49.8597C89.6122 50.2281 89.6908 50.6232 89.6908 51.0223C89.6908 51.4213 89.6122 51.8164 89.4593 52.1848C89.3065 52.5532 89.0825 52.8876 88.8004 53.1687C88.2271 53.7377 87.4533 54.0569 86.647 54.0569C85.8407 54.0569 85.0669 53.7377 84.4936 53.1687L76.5947 45.2903C75.9066 44.6063 74.9772 44.2226 74.0087 44.2226C73.0402 44.2226 72.1108 44.6063 71.4227 45.2903L71.3449 45.3732C71.0056 45.7107 70.7362 46.1122 70.5524 46.5548C70.3686 46.9973 70.2739 47.472 70.2739 47.9514C70.2739 48.4308 70.3686 48.9055 70.5524 49.348C70.7362 49.7905 71.0056 50.1921 71.3449 50.5296L77.4988 56.6713C77.781 56.9525 78.0049 57.2869 78.1578 57.6553C78.3106 58.0236 78.3893 58.4187 78.3893 58.8178C78.3893 59.2168 78.3106 59.6119 78.1578 59.9803C78.0049 60.3487 77.781 60.6831 77.4988 60.9642C76.9797 61.4827 76.2927 61.7973 75.5623 61.851C74.8319 61.9047 74.1066 61.6939 73.5177 61.2569C72.8107 60.7257 71.9366 60.4678 71.0555 60.5305C70.1744 60.5933 69.3454 60.9723 68.7201 61.5984C68.0973 62.2232 67.7231 63.0545 67.6676 63.9365C67.6121 64.8185 67.8792 65.6905 68.4187 66.3889C68.8671 66.9731 69.0874 67.7015 69.0382 68.4373C68.9889 69.1731 68.6736 69.8654 68.1513 70.3842C67.623 70.9096 66.9223 71.2241 66.1799 71.269C65.4374 71.3139 64.7041 71.0861 64.1168 70.6281C63.4141 70.078 62.5361 69.8029 61.6464 69.8541C60.7566 69.9052 59.9157 70.2791 59.2802 70.9062C58.6469 71.5316 58.2651 72.3691 58.2077 73.2589C58.1503 74.1488 58.4214 75.0287 58.9691 75.7308C59.4284 76.324 59.6552 77.0654 59.6069 77.815C59.5585 78.5646 59.2383 79.2705 58.7066 79.7993C58.1243 80.3772 57.3383 80.7014 56.5192 80.7014C55.7002 80.7014 54.9142 80.3772 54.3319 79.7993L52.5236 77.9992L53.034 77.487C53.9949 76.531 54.7576 75.3934 55.2781 74.14C55.7986 72.8866 56.0665 71.5421 56.0665 70.1842C56.0665 68.8263 55.7986 67.4818 55.2781 66.2284C54.7576 64.975 53.9949 63.8374 53.034 62.8814C51.216 61.0651 48.791 59.9908 46.2288 59.8666C46.0901 57.3603 45.0516 54.9892 43.3054 53.192C41.5593 51.3948 39.2237 50.293 36.7306 50.0905C36.5315 47.6472 35.4677 45.3561 33.7314 43.6317C32.6004 42.5043 31.226 41.6535 29.7146 41.1451C28.2032 40.6366 26.5954 40.4843 25.0159 40.6998C24.3988 38.4545 23.049 36.4818 21.1824 35.0976C19.3158 33.7135 17.0404 32.9978 14.7205 33.0653C14.3514 29.6341 14.758 26.1635 15.9102 22.9117C17.0623 19.66 18.9303 16.7109 21.3751 14.2839C23.6533 12.0125 26.3771 10.2412 29.3736 9.08226C32.3702 7.92336 35.574 7.40219 38.7819 7.55183L31.5052 13.0789C30.3227 13.9771 29.3288 15.1011 28.5808 16.3861C27.8327 17.6712 27.3453 19.0921 27.1465 20.567C26.9478 22.0418 27.0415 23.5416 27.4225 24.98C27.8035 26.4183 28.4641 27.7669 29.3664 28.948C31.1886 31.3319 33.8762 32.8959 36.843 33.2989C39.8098 33.7019 42.815 32.9113 45.2031 31.0993L54.3853 24.1185H63.9807V24.1234ZM35.9043 18.9182L51.1626 7.31768H53.6124C53.9156 7.31547 54.2188 7.3236 54.5214 7.34207H62.4252C66.3909 7.33671 70.2841 8.40863 73.6919 10.4441C77.0996 12.4796 79.8949 15.4028 81.7812 18.9036C84.1874 23.3916 84.9408 28.5529 83.9395 33.5141L68.3312 17.9231C67.9915 17.57 67.5844 17.2892 67.1343 17.0973C66.6842 16.9053 66.2002 16.8063 65.7112 16.8059H53.1652C52.3703 16.8056 51.5971 17.066 50.9633 17.5474L40.804 25.2698C39.952 25.915 38.8806 26.1966 37.8228 26.0531C36.7651 25.9097 35.8065 25.3529 35.1557 24.5039C34.8378 24.0882 34.6051 23.6135 34.4709 23.1072C34.3366 22.6009 34.3036 22.0729 34.3736 21.5536C34.4437 21.0344 34.6154 20.5343 34.8789 20.0819C35.1425 19.6296 35.4926 19.2341 35.9091 18.9182H35.9043ZM19.6009 57.725C19.3187 57.4439 19.0947 57.1095 18.9419 56.7411C18.7891 56.3727 18.7104 55.9776 18.7104 55.5786C18.7104 55.1796 18.7891 54.7845 18.9419 54.4161C19.0947 54.0477 19.3187 53.7133 19.6009 53.4321L24.2527 48.788C24.826 48.219 25.5998 47.8999 26.4061 47.8999C27.2124 47.8999 27.9862 48.219 28.5595 48.788C29.1227 49.3491 29.4428 50.1105 29.45 50.9069C29.4573 51.7034 29.1513 52.4705 28.5984 53.0419L28.5595 53.0809L23.9076 57.7202L23.8639 57.7641C23.2875 58.3147 22.5202 58.6185 21.7245 58.6113C20.9288 58.604 20.1671 58.2861 19.6009 57.725ZM17.2142 41.2901C17.7652 41.8611 18.0693 42.6273 18.0602 43.4222C18.0511 44.217 17.7295 44.9761 17.1656 45.5342L12.5137 50.1783C11.9404 50.7473 11.1666 51.0665 10.3603 51.0665C9.55403 51.0665 8.78026 50.7473 8.20696 50.1783C7.92478 49.8972 7.70083 49.5628 7.548 49.1944C7.39516 48.826 7.31648 48.4309 7.31648 48.0319C7.31648 47.6328 7.39516 47.2377 7.548 46.8694C7.70083 46.501 7.92478 46.1666 8.20696 45.8854L12.8637 41.2462C13.437 40.6772 14.2108 40.358 15.0171 40.358C15.8234 40.358 16.5971 40.6772 17.1704 41.2462L17.2142 41.2901ZM43.2102 76.9699C42.6369 77.5389 41.8631 77.858 41.0568 77.858C40.2505 77.858 39.4767 77.5389 38.9034 76.9699C38.6212 76.6888 38.3973 76.3544 38.2445 75.986C38.0916 75.6176 38.0129 75.2225 38.0129 74.8234C38.0129 74.4244 38.0916 74.0293 38.2445 73.6609C38.3973 73.2925 38.6212 72.9581 38.9034 72.677L43.5553 68.0377C44.1286 67.4687 44.9023 67.1496 45.7087 67.1496C46.515 67.1496 47.2887 67.4687 47.862 68.0377C48.1442 68.3189 48.3682 68.6533 48.521 69.0217C48.6738 69.3901 48.7525 69.7852 48.7525 70.1842C48.7525 70.5832 48.6738 70.9783 48.521 71.3467C48.3682 71.7151 48.1442 72.0495 47.862 72.3306L43.2102 76.9699ZM33.3863 67.1743C32.8136 67.7445 32.0396 68.0644 31.233 68.0644C30.4263 68.0644 29.6523 67.7445 29.0796 67.1743C28.5157 66.6139 28.1948 65.8528 28.1866 65.0564C28.1784 64.2599 28.4836 63.4924 29.0358 62.9204L29.0796 62.8814L33.7314 58.2421L33.7703 58.1982C34.3476 57.6468 35.1162 57.3429 35.9131 57.3511C36.71 57.3593 37.4723 57.679 38.0382 58.2421C38.3204 58.5233 38.5443 58.8577 38.6972 59.2261C38.85 59.5945 38.9287 59.9896 38.9287 60.3886C38.9287 60.7876 38.85 61.1827 38.6972 61.5511C38.5443 61.9195 38.3204 62.2539 38.0382 62.535L33.3863 67.1743Z"/>
</symbol><symbol id="guarantee-3-icon" viewBox="0 0 85 90">
<path d="M35.7895 0L68.4384 10.26C69.349 10.5459 70.1449 11.1172 70.7099 11.8903C71.2749 12.6634 71.5794 13.598 71.5789 14.5575V22.5H80.5263C81.7128 22.5 82.8507 22.9741 83.6897 23.818C84.5287 24.6619 85 25.8065 85 27V63C85 64.1935 84.5287 65.3381 83.6897 66.182C82.8507 67.0259 81.7128 67.5 80.5263 67.5L66.1211 67.5045C64.3897 69.7995 62.2871 71.8245 59.8579 73.4895L35.7895 90L11.7211 73.494C8.10865 71.0165 5.15257 67.689 3.10984 63.8006C1.0671 59.9123 -0.000452839 55.5809 1.44097e-07 51.183V14.5575C0.000539554 13.5987 0.305493 12.6652 0.87041 11.893C1.43533 11.1208 2.23068 10.5502 3.14053 10.2645L35.7895 0ZM35.7895 9.423L8.94737 17.865V51.183C8.94673 53.938 9.5748 56.6564 10.7832 59.1288C11.9916 61.6012 13.7481 63.7616 15.9174 65.4435L16.7629 66.0555L35.7895 79.11L52.7089 67.5H31.3158C30.1293 67.5 28.9914 67.0259 28.1524 66.182C27.3134 65.3381 26.8421 64.1935 26.8421 63V27C26.8421 25.8065 27.3134 24.6619 28.1524 23.818C28.9914 22.9741 30.1293 22.5 31.3158 22.5H62.6316V17.865L35.7895 9.423ZM35.7895 45V58.5H76.0526V45H35.7895ZM35.7895 36H76.0526V31.5H35.7895V36Z"/>
</symbol><symbol id="location-icon" viewBox="0 0 23 33">
<path d="M11.5 15.675C10.4107 15.675 9.36605 15.2404 8.59581 14.4668C7.82557 13.6932 7.39286 12.644 7.39286 11.55C7.39286 10.456 7.82557 9.40677 8.59581 8.63318C9.36605 7.8596 10.4107 7.425 11.5 7.425C12.5893 7.425 13.634 7.8596 14.4042 8.63318C15.1744 9.40677 15.6071 10.456 15.6071 11.55C15.6071 12.0917 15.5009 12.6281 15.2945 13.1286C15.0881 13.629 14.7856 14.0838 14.4042 14.4668C14.0228 14.8499 13.57 15.1537 13.0717 15.361C12.5734 15.5683 12.0394 15.675 11.5 15.675ZM11.5 0C8.45001 0 5.52494 1.21687 3.36827 3.38292C1.2116 5.54896 0 8.48675 0 11.55C0 20.2125 11.5 33 11.5 33C11.5 33 23 20.2125 23 11.55C23 8.48675 21.7884 5.54896 19.6317 3.38292C17.4751 1.21687 14.55 0 11.5 0Z" fill="#55C1FF"/>
</symbol></svg>